<mxfile host="Electron" agent="Mozilla/5.0 (Windows NT 10.0; Win64; x64) AppleWebKit/537.36 (KHTML, like Gecko) draw.io/25.0.1 Chrome/128.0.6613.186 Electron/32.2.6 Safari/537.36" version="25.0.1">
  <diagram id="C5RBs43oDa-KdzZeNtuy" name="Page-1">
    <mxGraphModel dx="1098" dy="988" grid="1" gridSize="10" guides="1" tooltips="1" connect="1" arrows="1" fold="1" page="1" pageScale="1" pageWidth="827" pageHeight="1169" math="0" shadow="0">
      <root>
        <mxCell id="WIyWlLk6GJQsqaUBKTNV-0" />
        <mxCell id="WIyWlLk6GJQsqaUBKTNV-1" parent="WIyWlLk6GJQsqaUBKTNV-0" />
        <mxCell id="yNxRlXfmD7GbKWxkoMue-5" value="findUser()" style="rounded=1;whiteSpace=wrap;html=1;" parent="WIyWlLk6GJQsqaUBKTNV-1" vertex="1">
          <mxGeometry x="120" y="80" width="110" height="40" as="geometry" />
        </mxCell>
        <mxCell id="yNxRlXfmD7GbKWxkoMue-6" value="read adminPassword" style="rounded=1;whiteSpace=wrap;html=1;" parent="WIyWlLk6GJQsqaUBKTNV-1" vertex="1">
          <mxGeometry x="120" y="120" width="110" height="40" as="geometry" />
        </mxCell>
        <mxCell id="jMSwfvHGkF4a416nNfrf-5" style="edgeStyle=orthogonalEdgeStyle;rounded=0;orthogonalLoop=1;jettySize=auto;html=1;" parent="WIyWlLk6GJQsqaUBKTNV-1" source="jMSwfvHGkF4a416nNfrf-2" target="jMSwfvHGkF4a416nNfrf-4" edge="1">
          <mxGeometry relative="1" as="geometry" />
        </mxCell>
        <mxCell id="jMSwfvHGkF4a416nNfrf-8" value="False" style="edgeLabel;html=1;align=center;verticalAlign=middle;resizable=0;points=[];" parent="jMSwfvHGkF4a416nNfrf-5" vertex="1" connectable="0">
          <mxGeometry x="0.1195" relative="1" as="geometry">
            <mxPoint as="offset" />
          </mxGeometry>
        </mxCell>
        <mxCell id="jMSwfvHGkF4a416nNfrf-10" style="edgeStyle=orthogonalEdgeStyle;rounded=0;orthogonalLoop=1;jettySize=auto;html=1;entryX=0.5;entryY=0;entryDx=0;entryDy=0;" parent="WIyWlLk6GJQsqaUBKTNV-1" source="jMSwfvHGkF4a416nNfrf-2" target="jMSwfvHGkF4a416nNfrf-9" edge="1">
          <mxGeometry relative="1" as="geometry" />
        </mxCell>
        <mxCell id="jMSwfvHGkF4a416nNfrf-2" value="passwordIsCorrect" style="strokeWidth=2;html=1;shape=mxgraph.flowchart.decision;whiteSpace=wrap;" parent="WIyWlLk6GJQsqaUBKTNV-1" vertex="1">
          <mxGeometry x="112.5" y="200" width="125" height="120" as="geometry" />
        </mxCell>
        <mxCell id="jMSwfvHGkF4a416nNfrf-3" style="edgeStyle=orthogonalEdgeStyle;rounded=0;orthogonalLoop=1;jettySize=auto;html=1;entryX=0.5;entryY=0;entryDx=0;entryDy=0;entryPerimeter=0;" parent="WIyWlLk6GJQsqaUBKTNV-1" source="yNxRlXfmD7GbKWxkoMue-6" target="jMSwfvHGkF4a416nNfrf-2" edge="1">
          <mxGeometry relative="1" as="geometry" />
        </mxCell>
        <mxCell id="jMSwfvHGkF4a416nNfrf-7" style="edgeStyle=orthogonalEdgeStyle;rounded=0;orthogonalLoop=1;jettySize=auto;html=1;" parent="WIyWlLk6GJQsqaUBKTNV-1" source="jMSwfvHGkF4a416nNfrf-4" target="jMSwfvHGkF4a416nNfrf-6" edge="1">
          <mxGeometry relative="1" as="geometry" />
        </mxCell>
        <mxCell id="jMSwfvHGkF4a416nNfrf-4" value="print &quot;Not authorized&quot;" style="rounded=1;whiteSpace=wrap;html=1;" parent="WIyWlLk6GJQsqaUBKTNV-1" vertex="1">
          <mxGeometry x="304" y="240" width="110" height="40" as="geometry" />
        </mxCell>
        <mxCell id="jMSwfvHGkF4a416nNfrf-37" style="edgeStyle=orthogonalEdgeStyle;rounded=0;orthogonalLoop=1;jettySize=auto;html=1;" parent="WIyWlLk6GJQsqaUBKTNV-1" source="jMSwfvHGkF4a416nNfrf-46" target="jMSwfvHGkF4a416nNfrf-36" edge="1">
          <mxGeometry relative="1" as="geometry" />
        </mxCell>
        <mxCell id="jMSwfvHGkF4a416nNfrf-6" value="print &quot;press enter to continue&quot;" style="rounded=1;whiteSpace=wrap;html=1;" parent="WIyWlLk6GJQsqaUBKTNV-1" vertex="1">
          <mxGeometry x="470" y="350" width="110" height="40" as="geometry" />
        </mxCell>
        <mxCell id="jMSwfvHGkF4a416nNfrf-9" value="read numberToSearch" style="rounded=1;whiteSpace=wrap;html=1;" parent="WIyWlLk6GJQsqaUBKTNV-1" vertex="1">
          <mxGeometry x="120" y="350" width="110" height="40" as="geometry" />
        </mxCell>
        <mxCell id="jMSwfvHGkF4a416nNfrf-23" style="edgeStyle=orthogonalEdgeStyle;rounded=0;orthogonalLoop=1;jettySize=auto;html=1;" parent="WIyWlLk6GJQsqaUBKTNV-1" source="jMSwfvHGkF4a416nNfrf-11" target="jMSwfvHGkF4a416nNfrf-21" edge="1">
          <mxGeometry relative="1" as="geometry" />
        </mxCell>
        <mxCell id="jMSwfvHGkF4a416nNfrf-24" value="False" style="edgeLabel;html=1;align=center;verticalAlign=middle;resizable=0;points=[];" parent="jMSwfvHGkF4a416nNfrf-23" vertex="1" connectable="0">
          <mxGeometry x="0.103" relative="1" as="geometry">
            <mxPoint as="offset" />
          </mxGeometry>
        </mxCell>
        <mxCell id="jMSwfvHGkF4a416nNfrf-11" value="number isPresent" style="strokeWidth=2;html=1;shape=mxgraph.flowchart.decision;whiteSpace=wrap;" parent="WIyWlLk6GJQsqaUBKTNV-1" vertex="1">
          <mxGeometry x="112.5" y="440" width="125" height="120" as="geometry" />
        </mxCell>
        <mxCell id="jMSwfvHGkF4a416nNfrf-12" style="edgeStyle=orthogonalEdgeStyle;rounded=0;orthogonalLoop=1;jettySize=auto;html=1;entryX=0.5;entryY=0;entryDx=0;entryDy=0;entryPerimeter=0;" parent="WIyWlLk6GJQsqaUBKTNV-1" source="jMSwfvHGkF4a416nNfrf-9" target="jMSwfvHGkF4a416nNfrf-11" edge="1">
          <mxGeometry relative="1" as="geometry" />
        </mxCell>
        <mxCell id="jMSwfvHGkF4a416nNfrf-26" style="edgeStyle=orthogonalEdgeStyle;rounded=0;orthogonalLoop=1;jettySize=auto;html=1;" parent="WIyWlLk6GJQsqaUBKTNV-1" source="jMSwfvHGkF4a416nNfrf-21" edge="1">
          <mxGeometry relative="1" as="geometry">
            <mxPoint x="525" y="390" as="targetPoint" />
          </mxGeometry>
        </mxCell>
        <mxCell id="jMSwfvHGkF4a416nNfrf-21" value="print &quot;Number not found&quot;" style="rounded=1;whiteSpace=wrap;html=1;" parent="WIyWlLk6GJQsqaUBKTNV-1" vertex="1">
          <mxGeometry x="310" y="480" width="110" height="40" as="geometry" />
        </mxCell>
        <mxCell id="jMSwfvHGkF4a416nNfrf-29" style="edgeStyle=orthogonalEdgeStyle;rounded=0;orthogonalLoop=1;jettySize=auto;html=1;entryX=0.5;entryY=0;entryDx=0;entryDy=0;entryPerimeter=0;" parent="WIyWlLk6GJQsqaUBKTNV-1" source="jMSwfvHGkF4a416nNfrf-11" edge="1">
          <mxGeometry relative="1" as="geometry">
            <mxPoint x="175" y="610" as="targetPoint" />
          </mxGeometry>
        </mxCell>
        <mxCell id="jMSwfvHGkF4a416nNfrf-50" value="True" style="edgeLabel;html=1;align=center;verticalAlign=middle;resizable=0;points=[];" parent="jMSwfvHGkF4a416nNfrf-29" vertex="1" connectable="0">
          <mxGeometry x="-0.4867" y="-1" relative="1" as="geometry">
            <mxPoint as="offset" />
          </mxGeometry>
        </mxCell>
        <mxCell id="jMSwfvHGkF4a416nNfrf-36" value="Stop" style="rounded=1;whiteSpace=wrap;html=1;" parent="WIyWlLk6GJQsqaUBKTNV-1" vertex="1">
          <mxGeometry x="800" y="350" width="110" height="40" as="geometry" />
        </mxCell>
        <mxCell id="jMSwfvHGkF4a416nNfrf-46" value="ReadKey()" style="rounded=1;whiteSpace=wrap;html=1;" parent="WIyWlLk6GJQsqaUBKTNV-1" vertex="1">
          <mxGeometry x="580" y="350" width="110" height="40" as="geometry" />
        </mxCell>
        <mxCell id="mXulxUtFxzyXjVDQYz17-2" style="edgeStyle=orthogonalEdgeStyle;rounded=0;orthogonalLoop=1;jettySize=auto;html=1;entryX=0.5;entryY=0;entryDx=0;entryDy=0;" edge="1" parent="WIyWlLk6GJQsqaUBKTNV-1" source="mXulxUtFxzyXjVDQYz17-0" target="mXulxUtFxzyXjVDQYz17-1">
          <mxGeometry relative="1" as="geometry" />
        </mxCell>
        <mxCell id="mXulxUtFxzyXjVDQYz17-0" value="Add matching User to userArray" style="rounded=1;whiteSpace=wrap;html=1;" vertex="1" parent="WIyWlLk6GJQsqaUBKTNV-1">
          <mxGeometry x="105" y="620" width="140" height="40" as="geometry" />
        </mxCell>
        <mxCell id="mXulxUtFxzyXjVDQYz17-3" style="edgeStyle=orthogonalEdgeStyle;rounded=0;orthogonalLoop=1;jettySize=auto;html=1;entryX=0.5;entryY=1;entryDx=0;entryDy=0;" edge="1" parent="WIyWlLk6GJQsqaUBKTNV-1" source="mXulxUtFxzyXjVDQYz17-1" target="jMSwfvHGkF4a416nNfrf-36">
          <mxGeometry relative="1" as="geometry" />
        </mxCell>
        <mxCell id="mXulxUtFxzyXjVDQYz17-1" value="Call printUsers(userArray)" style="rounded=1;whiteSpace=wrap;html=1;" vertex="1" parent="WIyWlLk6GJQsqaUBKTNV-1">
          <mxGeometry x="105" y="700" width="140" height="40" as="geometry" />
        </mxCell>
      </root>
    </mxGraphModel>
  </diagram>
</mxfile>
